<mxfile host="app.diagrams.net" agent="Mozilla/5.0 (Windows NT 10.0; Win64; x64) AppleWebKit/537.36 (KHTML, like Gecko) Chrome/135.0.0.0 Safari/537.36" version="26.2.14">
  <diagram name="Sayfa -1" id="9uhYIhhz4IRoveKTRUz-">
    <mxGraphModel grid="1" page="1" gridSize="10" guides="1" tooltips="1" connect="1" arrows="1" fold="1" pageScale="1" pageWidth="827" pageHeight="1169" background="none" math="0" shadow="0">
      <root>
        <mxCell id="0" />
        <mxCell id="1" parent="0" />
        <mxCell id="DAw8nQIStLFQPErYZ7ZO-8" value="" style="rounded=0;whiteSpace=wrap;html=1;" vertex="1" parent="1">
          <mxGeometry x="130" y="130" width="560" height="630" as="geometry" />
        </mxCell>
        <mxCell id="DAw8nQIStLFQPErYZ7ZO-17" value="" style="shape=ext;double=1;rounded=1;whiteSpace=wrap;html=1;" vertex="1" parent="1">
          <mxGeometry x="190" y="270" width="430" height="70" as="geometry" />
        </mxCell>
        <mxCell id="DAw8nQIStLFQPErYZ7ZO-19" value="" style="rounded=1;whiteSpace=wrap;html=1;" vertex="1" parent="1">
          <mxGeometry x="230" y="280" width="360" height="50" as="geometry" />
        </mxCell>
        <mxCell id="DAw8nQIStLFQPErYZ7ZO-21" value="" style="html=1;verticalLabelPosition=bottom;align=center;labelBackgroundColor=#ffffff;verticalAlign=top;strokeWidth=2;strokeColor=light-dark(#0080F0,#D4E1F5);shadow=0;dashed=0;shape=mxgraph.ios7.icons.looking_glass;" vertex="1" parent="1">
          <mxGeometry x="250" y="290" width="30" height="30" as="geometry" />
        </mxCell>
        <mxCell id="DAw8nQIStLFQPErYZ7ZO-25" value="" style="ellipse;whiteSpace=wrap;html=1;" vertex="1" parent="1">
          <mxGeometry x="517.5" y="288" width="35" height="34" as="geometry" />
        </mxCell>
        <mxCell id="DAw8nQIStLFQPErYZ7ZO-26" value="&lt;font style=&quot;font-size: 20px;&quot;&gt;&lt;b&gt;Chicken |&lt;/b&gt;&lt;/font&gt;" style="text;html=1;align=center;verticalAlign=middle;whiteSpace=wrap;rounded=0;" vertex="1" parent="1">
          <mxGeometry x="290" y="290" width="130" height="30" as="geometry" />
        </mxCell>
        <mxCell id="DAw8nQIStLFQPErYZ7ZO-27" value="" style="rounded=0;whiteSpace=wrap;html=1;" vertex="1" parent="1">
          <mxGeometry x="130" y="130" width="560" height="60" as="geometry" />
        </mxCell>
        <mxCell id="DAw8nQIStLFQPErYZ7ZO-28" value="" style="shape=hexagon;perimeter=hexagonPerimeter2;whiteSpace=wrap;html=1;fixedSize=1;" vertex="1" parent="1">
          <mxGeometry x="170" y="145" width="470" height="30" as="geometry" />
        </mxCell>
        <mxCell id="DAw8nQIStLFQPErYZ7ZO-29" value="&lt;font style=&quot;font-size: 16px;&quot;&gt;&lt;b&gt;&lt;i&gt;SEARCH FOR FOOD&lt;/i&gt;&lt;/b&gt;&lt;/font&gt;" style="text;html=1;align=center;verticalAlign=middle;whiteSpace=wrap;rounded=0;" vertex="1" parent="1">
          <mxGeometry x="240" y="145" width="310" height="30" as="geometry" />
        </mxCell>
        <mxCell id="DAw8nQIStLFQPErYZ7ZO-43" value="" style="rounded=0;whiteSpace=wrap;html=1;" vertex="1" parent="1">
          <mxGeometry x="160" y="190" width="500" height="60" as="geometry" />
        </mxCell>
        <mxCell id="DAw8nQIStLFQPErYZ7ZO-44" value="&lt;b&gt;&lt;i&gt;&lt;font style=&quot;font-size: 15px;&quot;&gt;FOOD&lt;/font&gt;&lt;/i&gt;&lt;/b&gt;" style="text;html=1;align=center;verticalAlign=middle;whiteSpace=wrap;rounded=0;" vertex="1" parent="1">
          <mxGeometry x="383" y="205" width="60" height="30" as="geometry" />
        </mxCell>
        <mxCell id="DAw8nQIStLFQPErYZ7ZO-45" value="&lt;span style=&quot;font-size: 15px;&quot;&gt;&lt;b&gt;&lt;i&gt;DRINK&lt;/i&gt;&lt;/b&gt;&lt;/span&gt;" style="text;html=1;align=center;verticalAlign=middle;whiteSpace=wrap;rounded=0;" vertex="1" parent="1">
          <mxGeometry x="200" y="205" width="90" height="30" as="geometry" />
        </mxCell>
        <mxCell id="DAw8nQIStLFQPErYZ7ZO-47" value="" style="triangle;whiteSpace=wrap;html=1;fillColor=light-dark(#FFFFFF,#6D6D6D);fontColor=#ffffff;strokeColor=none;" vertex="1" parent="1">
          <mxGeometry x="630" y="205" width="15" height="30" as="geometry" />
        </mxCell>
        <mxCell id="DAw8nQIStLFQPErYZ7ZO-48" value="" style="triangle;whiteSpace=wrap;html=1;fillColor=light-dark(#FFFFFF,#6D6D6D);fontColor=#ffffff;strokeColor=none;direction=west;" vertex="1" parent="1">
          <mxGeometry x="180" y="205" width="15" height="30" as="geometry" />
        </mxCell>
        <mxCell id="DAw8nQIStLFQPErYZ7ZO-50" value="" style="rounded=0;whiteSpace=wrap;html=1;fillColor=light-dark(#000000,#FFFFFF);" vertex="1" parent="1">
          <mxGeometry x="219" y="240" width="390" height="4" as="geometry" />
        </mxCell>
        <mxCell id="DAw8nQIStLFQPErYZ7ZO-54" value="" style="triangle;whiteSpace=wrap;html=1;direction=north;fillColor=light-dark(#000000,#FFFFFF);" vertex="1" parent="1">
          <mxGeometry x="403" y="230" width="17" height="10" as="geometry" />
        </mxCell>
        <mxCell id="DAw8nQIStLFQPErYZ7ZO-59" value="" style="shape=mxgraph.mockup.markup.redX;fillColor=light-dark(#FF0000,#4D4D4D);html=1;shadow=0;whiteSpace=wrap;strokeColor=none;" vertex="1" parent="1">
          <mxGeometry x="524.5" y="296" width="21" height="18" as="geometry" />
        </mxCell>
        <mxCell id="DAw8nQIStLFQPErYZ7ZO-84" value="&lt;blockquote style=&quot;margin: 0 0 0 40px; border: none; padding: 0px;&quot;&gt;&lt;ul&gt;&lt;li&gt;&lt;font style=&quot;font-size: 20px;&quot;&gt;Chicken wing&lt;/font&gt;&lt;/li&gt;&lt;/ul&gt;&lt;/blockquote&gt;" style="text;strokeColor=#DFDFDF;fillColor=#FFFFFF;align=left;verticalAlign=middle;spacingLeft=10;spacingRight=10;overflow=hidden;points=[[0,0.5],[1,0.5]];portConstraint=eastwest;rotatable=0;whiteSpace=wrap;html=1;rSize=5;fontColor=#333333;" vertex="1" parent="1">
          <mxGeometry x="140" y="530" width="540" height="70" as="geometry" />
        </mxCell>
        <mxCell id="DAw8nQIStLFQPErYZ7ZO-85" value="&lt;blockquote style=&quot;margin: 0 0 0 40px; border: none; padding: 0px;&quot;&gt;&lt;ul&gt;&lt;li&gt;&lt;font style=&quot;font-size: 20px;&quot;&gt;Chicken wing(Cooked)&lt;/font&gt;&lt;/li&gt;&lt;/ul&gt;&lt;/blockquote&gt;" style="text;strokeColor=#DFDFDF;fillColor=#FFFFFF;align=left;verticalAlign=middle;spacingLeft=10;spacingRight=10;overflow=hidden;points=[[0,0.5],[1,0.5]];portConstraint=eastwest;rotatable=0;whiteSpace=wrap;html=1;shape=mxgraph.bootstrap.bottomButton;rSize=5;fontColor=#333333;" vertex="1" parent="1">
          <mxGeometry x="140" y="600" width="540" height="80" as="geometry" />
        </mxCell>
        <mxCell id="DAw8nQIStLFQPErYZ7ZO-83" value="&lt;blockquote style=&quot;margin: 0 0 0 40px; border: none; padding: 0px;&quot;&gt;&lt;ul&gt;&lt;li&gt;&lt;font style=&quot;font-size: 20px;&quot;&gt;Chicken breast (Cooked)&lt;/font&gt;&lt;/li&gt;&lt;/ul&gt;&lt;/blockquote&gt;" style="text;strokeColor=#DFDFDF;fillColor=#FFFFFF;align=left;verticalAlign=middle;spacingLeft=10;spacingRight=10;overflow=hidden;points=[[0,0.5],[1,0.5]];portConstraint=eastwest;rotatable=0;whiteSpace=wrap;html=1;rSize=5;fontColor=#333333;" vertex="1" parent="1">
          <mxGeometry x="140" y="450" width="540" height="80" as="geometry" />
        </mxCell>
        <mxCell id="DAw8nQIStLFQPErYZ7ZO-82" value="&lt;blockquote style=&quot;margin: 0 0 0 40px; border: none; padding: 0px;&quot;&gt;&lt;ul&gt;&lt;li&gt;&lt;span style=&quot;background-color: transparent; color: light-dark(rgb(51, 51, 51), rgb(193, 193, 193)); font-size: 20px;&quot;&gt;Chicken breast&lt;/span&gt;&lt;/li&gt;&lt;/ul&gt;&lt;/blockquote&gt;" style="text;strokeColor=#DFDFDF;fillColor=#F7F7F7;align=left;verticalAlign=middle;spacingLeft=10;spacingRight=10;overflow=hidden;points=[[0,0.5],[1,0.5]];portConstraint=eastwest;rotatable=0;whiteSpace=wrap;html=1;shape=mxgraph.bootstrap.topButton;rSize=5;fontColor=#333333;" vertex="1" parent="1">
          <mxGeometry x="140" y="380" width="540" height="70" as="geometry" />
        </mxCell>
        <mxCell id="DAw8nQIStLFQPErYZ7ZO-86" value="" style="rounded=1;whiteSpace=wrap;html=1;" vertex="1" parent="1">
          <mxGeometry x="150" y="390" width="50" height="50" as="geometry" />
        </mxCell>
        <mxCell id="DAw8nQIStLFQPErYZ7ZO-90" value="" style="shape=mxgraph.mockup.markup.redX;fillColor=light-dark(#FF0000,#4D4D4D);html=1;shadow=0;whiteSpace=wrap;strokeColor=none;" vertex="1" parent="1">
          <mxGeometry x="160" y="400" width="30" height="30" as="geometry" />
        </mxCell>
        <mxCell id="DAw8nQIStLFQPErYZ7ZO-91" value="" style="rounded=1;whiteSpace=wrap;html=1;" vertex="1" parent="1">
          <mxGeometry x="150" y="465" width="50" height="50" as="geometry" />
        </mxCell>
        <mxCell id="DAw8nQIStLFQPErYZ7ZO-93" value="" style="shape=mxgraph.mockup.markup.redX;fillColor=light-dark(#FF0000,#4D4D4D);html=1;shadow=0;whiteSpace=wrap;strokeColor=none;" vertex="1" parent="1">
          <mxGeometry x="160" y="475" width="30" height="30" as="geometry" />
        </mxCell>
        <mxCell id="DAw8nQIStLFQPErYZ7ZO-96" value="" style="rounded=1;whiteSpace=wrap;html=1;" vertex="1" parent="1">
          <mxGeometry x="150" y="540" width="50" height="50" as="geometry" />
        </mxCell>
        <mxCell id="DAw8nQIStLFQPErYZ7ZO-97" value="" style="rounded=1;whiteSpace=wrap;html=1;" vertex="1" parent="1">
          <mxGeometry x="150" y="620" width="50" height="50" as="geometry" />
        </mxCell>
        <mxCell id="DAw8nQIStLFQPErYZ7ZO-98" value="" style="shape=mxgraph.mockup.markup.redX;fillColor=light-dark(#FF0000,#4D4D4D);html=1;shadow=0;whiteSpace=wrap;strokeColor=none;" vertex="1" parent="1">
          <mxGeometry x="160" y="550" width="30" height="30" as="geometry" />
        </mxCell>
        <mxCell id="DAw8nQIStLFQPErYZ7ZO-99" value="" style="shape=mxgraph.mockup.markup.redX;fillColor=light-dark(#FF0000,#4D4D4D);html=1;shadow=0;whiteSpace=wrap;strokeColor=none;" vertex="1" parent="1">
          <mxGeometry x="160" y="630" width="30" height="30" as="geometry" />
        </mxCell>
        <mxCell id="DAw8nQIStLFQPErYZ7ZO-104" value="" style="ellipse;whiteSpace=wrap;html=1;aspect=fixed;fillColor=light-dark(#EEEEEE,#555555);strokeColor=#36393d;" vertex="1" parent="1">
          <mxGeometry x="630" y="400" width="30" height="30" as="geometry" />
        </mxCell>
        <mxCell id="DAw8nQIStLFQPErYZ7ZO-105" value="" style="ellipse;whiteSpace=wrap;html=1;aspect=fixed;fillColor=light-dark(#EEEEEE,#555555);strokeColor=#36393d;" vertex="1" parent="1">
          <mxGeometry x="630" y="475" width="30" height="30" as="geometry" />
        </mxCell>
        <mxCell id="DAw8nQIStLFQPErYZ7ZO-106" value="" style="ellipse;whiteSpace=wrap;html=1;aspect=fixed;fillColor=light-dark(#EEEEEE,#555555);strokeColor=#36393d;" vertex="1" parent="1">
          <mxGeometry x="630" y="550" width="30" height="30" as="geometry" />
        </mxCell>
        <mxCell id="DAw8nQIStLFQPErYZ7ZO-107" value="" style="ellipse;whiteSpace=wrap;html=1;aspect=fixed;fillColor=light-dark(#EEEEEE,#555555);strokeColor=#36393d;" vertex="1" parent="1">
          <mxGeometry x="630" y="630" width="30" height="30" as="geometry" />
        </mxCell>
        <mxCell id="DAw8nQIStLFQPErYZ7ZO-109" value="&lt;b&gt;&lt;font style=&quot;font-size: 13px;&quot;&gt;&lt;font style=&quot;color: light-dark(rgb(0, 0, 0), rgb(162, 162, 162));&quot;&gt;100g*&lt;/font&gt;&amp;nbsp; 110kcal&lt;/font&gt;&lt;/b&gt;" style="text;html=1;align=center;verticalAlign=middle;whiteSpace=wrap;rounded=0;" vertex="1" parent="1">
          <mxGeometry x="160" y="420" width="250" height="30" as="geometry" />
        </mxCell>
        <mxCell id="DAw8nQIStLFQPErYZ7ZO-110" value="&lt;b&gt;&lt;font style=&quot;font-size: 13px;&quot;&gt;&lt;font style=&quot;color: light-dark(rgb(0, 0, 0), rgb(154, 154, 154));&quot;&gt;&lt;font style=&quot;&quot;&gt;100g*&lt;/font&gt;&amp;nbsp;&lt;/font&gt; 187kcal&lt;/font&gt;&lt;/b&gt;" style="text;html=1;align=center;verticalAlign=middle;whiteSpace=wrap;rounded=0;" vertex="1" parent="1">
          <mxGeometry x="160" y="500" width="250" height="30" as="geometry" />
        </mxCell>
        <mxCell id="DAw8nQIStLFQPErYZ7ZO-111" value="&lt;b&gt;&lt;font style=&quot;font-size: 13px;&quot;&gt;&lt;font style=&quot;color: light-dark(rgb(255, 255, 255), rgb(136, 136, 136));&quot;&gt;100g*&lt;/font&gt;&amp;nbsp; 157kcal&lt;/font&gt;&lt;/b&gt;" style="text;html=1;align=center;verticalAlign=middle;whiteSpace=wrap;rounded=0;" vertex="1" parent="1">
          <mxGeometry x="160" y="570" width="250" height="30" as="geometry" />
        </mxCell>
        <mxCell id="DAw8nQIStLFQPErYZ7ZO-112" value="&lt;b&gt;&lt;font style=&quot;font-size: 13px;&quot;&gt;&lt;font style=&quot;color: light-dark(rgb(255, 255, 255), rgb(136, 136, 136));&quot;&gt;&lt;font style=&quot;&quot;&gt;100g*&lt;/font&gt;&amp;nbsp;&lt;/font&gt; 209kcal&lt;/font&gt;&lt;/b&gt;" style="text;html=1;align=center;verticalAlign=middle;whiteSpace=wrap;rounded=0;" vertex="1" parent="1">
          <mxGeometry x="160" y="650" width="250" height="30" as="geometry" />
        </mxCell>
      </root>
    </mxGraphModel>
  </diagram>
</mxfile>
